<svg width="1070" height="737" viewBox="0 0 1070 737" fill="none" xmlns="http://www.w3.org/2000/svg">
<path d="M689 366.5C689 444.096 626.096 507 548.5 507C470.904 507 408 444.096 408 366.5C408 288.904 470.904 226 548.5 226C626.096 226 689 288.904 689 366.5ZM464.2 366.5C464.2 413.058 501.942 450.8 548.5 450.8C595.058 450.8 632.8 413.058 632.8 366.5C632.8 319.942 595.058 282.2 548.5 282.2C501.942 282.2 464.2 319.942 464.2 366.5Z" fill="#C4C4C4"/>
<path d="M688.555 495.341C687.082 518.863 679.016 541.495 665.28 560.647C651.543 579.798 632.691 594.694 610.882 603.63C589.074 612.566 565.19 615.18 541.964 611.173C518.739 607.166 497.111 596.701 479.557 580.974L516.742 539.468C526.502 548.211 538.526 554.03 551.438 556.258C564.351 558.485 577.629 557.032 589.754 552.064C601.879 547.096 612.36 538.814 619.997 528.167C627.634 517.519 632.118 504.937 632.937 491.859L688.555 495.341Z" fill="#C4C4C4"/>
<rect x="633" y="369" width="56" height="127" fill="#C4C4C4"/>
<path d="M350 510V160H275V371L109 160H45V510H120V300L286 510H350Z" fill="#C4C4C4"/>
<path d="M986.303 377.152C986.303 454.003 924.003 516.303 847.152 516.303C770.3 516.303 708 454.003 708 377.152C708 300.3 770.3 238 847.152 238C924.003 238 986.303 300.3 986.303 377.152ZM763.661 377.152C763.661 423.263 801.041 460.643 847.152 460.643C893.263 460.643 930.643 423.263 930.643 377.152C930.643 331.041 893.263 293.661 847.152 293.661C801.041 293.661 763.661 331.041 763.661 377.152Z" fill="black"/>
<rect x="917.711" y="460.742" width="55.4626" height="148.315" rx="27.7313" transform="rotate(-53 917.711 460.742)" fill="black"/>
<path d="M690.76 598H700.6V576.24H720.36V567.04H700.6V551.2H722.76V542H690.76V598ZM734.929 598H744.769V542H734.929V598ZM809.303 598V542H800.103V580.96L769.303 542H761.463V598H770.663V559.2L801.463 598H809.303ZM824.823 598H825.943C831.063 598 837.303 598.16 840.663 598.16C862.023 598.16 872.743 585.2 872.743 569.44C872.743 554.64 863.703 541.76 841.303 541.76C837.223 541.76 829.223 542 825.863 542H824.823V598ZM841.143 550.96C854.503 550.96 862.343 558.16 862.343 569.44C862.343 581.28 854.503 588.96 840.983 588.96C839.623 588.96 837.383 588.96 834.663 588.8V551.2C836.903 551.04 838.823 550.96 841.143 550.96ZM884.119 598H917.319V588.8H893.959V574.32H914.119V565.12H893.959V551.2H916.519V542H884.119V598ZM939.975 598V577.04H946.855L962.295 598H974.215L956.695 575.12C961.335 573.52 967.495 568.72 967.495 559.12C967.495 549.44 962.455 541.84 947.175 541.84C945.575 541.84 933.255 542 930.135 542V598H939.975ZM946.695 551.04C954.695 551.04 957.095 554.8 957.095 559.2C957.095 564.96 952.055 567.84 946.375 567.84H939.975V551.2C942.615 551.12 944.855 551.04 946.695 551.04Z" fill="black"/>
</svg>
